<svg xmlns="http://www.w3.org/2000/svg" width="128" height="128" viewBox="0 0 128 128"><defs><linearGradient id="a" x1="34.62" x2="56.05" y1="1.27" y2="38.38" gradientUnits="userSpaceOnUse"><stop offset="0" stop-color="#d4d7dd"/><stop offset=".5" stop-color="#d4d7dd"/><stop offset="1" stop-color="#bec1c6"/></linearGradient><linearGradient id="b" x1="77.7" x2="169" y1="96.2" y2="254.4" href="#a"/><symbol id="c" viewBox="0 0 348 240"><path fill="none" stroke="url(#a)" stroke-dasharray="37" stroke-linecap="round" stroke-miterlimit="10" stroke-width="6" d="M66.8 6.08A10 10 0 1 1 74 23H3"><animate attributeName="stroke-dashoffset" dur="6s" repeatCount="indefinite" values="0; 962"/></path><path fill="none" stroke="url(#b)" stroke-dasharray="27.5" stroke-linecap="round" stroke-miterlimit="10" stroke-width="6" d="M37.8 53.92A10 10 0 1 0 45 37H3"><animate attributeName="stroke-dashoffset" dur="6s" repeatCount="indefinite" values="0; 550"/></path></symbol></defs><use width="348" height="240" href="#c" transform="translate(20.5 34)"/><path fill="#374251" d="M102.97 86H89.05q0-2.35 1-3.92 1-1.53 3.7-3.38l2.75-1.95a5.6 5.6 0 0 0 1.47-1.37 2.55 2.55 0 0 0 .43-1.46 2.17 2.17 0 0 0-.65-1.67 2.45 2.45 0 0 0-1.75-.6q-2.5 0-2.5 2.95v.38h-4.25v-.53q0-3.05 1.8-4.75 1.8-1.75 5-1.75 3.12 0 4.95 1.5 1.82 1.5 1.85 4.15a5.5 5.5 0 0 1-.88 3.05q-.87 1.38-2.8 2.6l-3.02 1.92c-.58.38-.9.7-.95.98h7.75z"/></svg>