<svg xmlns="http://www.w3.org/2000/svg" width="128" height="128" viewBox="0 0 128 128"><defs><linearGradient id="a" x1="37.5" x2="58.5" y1="29.8" y2="66.2" gradientUnits="userSpaceOnUse"><stop offset="0" stop-color="#fbbf24"/><stop offset=".5" stop-color="#fbbf24"/><stop offset="1" stop-color="#f59e0b"/></linearGradient><clipPath id="b"><path fill="none" d="M16 16h96v48H82a18 18 0 0 0-18 18v30H16z"/></clipPath><symbol id="c" viewBox="0 0 384 384"><circle cx="48" cy="48" r="21" fill="url(#a)" stroke="#f8af18" stroke-miterlimit="10" stroke-width="1.5"/><path fill="none" stroke="#fbbf24" stroke-linecap="round" stroke-miterlimit="10" stroke-width="6" d="M48 15.43V3m0 90V80.58m23.05-55.63 8.75-8.75M16.2 79.8l8.78-8.78m0-46.1-8.75-8.75M79.85 79.8l-8.78-8.78M15.43 48H3m90 0H80.58"><animateTransform additive="sum" attributeName="transform" dur="6s" repeatCount="indefinite" type="rotate" values="0 48 48;45 48 48"/></path></symbol></defs><g clip-path="url(#b)"><use width="384" height="384" href="#c" transform="translate(16 16)"/><path fill="none" stroke="#f8af18" stroke-miterlimit="10" stroke-width="1.5" d="M63.5 84.5V82A18.5 18.5 0 0 1 82 63.5h2.5"/></g><rect width="36" height="36" x="70" y="70" fill="#91c700" rx="12"/><path fill="#fff" d="M91.6 97h-4.75V85.75h-4.43V82.6h.75q1.95 0 3.08-.85 1.08-.78 1.4-2.55l.05-.2h3.9z"/></svg>