<svg xmlns="http://www.w3.org/2000/svg" width="128" height="128" viewBox="0 0 128 128"><defs><symbol id="e" viewBox="0 0 193 193"><circle cx="24.12" cy="24.12" r="10" fill="none" stroke="#fbbf24" stroke-miterlimit="10" stroke-width="2.25"/><path fill="none" stroke="#fbbf24" stroke-linecap="round" stroke-miterlimit="10" stroke-width="2.25" d="M24.12 7.47V1.12m0 46v-6.35M35.9 12.35l4.5-4.5M7.85 40.4l4.5-4.5m0-23.55-4.5-4.5M40.4 40.4l-4.5-4.5M1.12 24.12h6.35m39.65 0h-6.35"><animateTransform additive="sum" attributeName="transform" dur="6s" repeatCount="indefinite" type="rotate" values="0 24.12 24.12;45 24.12 24.12"/></path></symbol><symbol id="b" viewBox="0 0 214.3 140.1"><path fill="none" stroke="#94a3b8" stroke-linejoin="round" stroke-width="3.75" d="M1.88 25.05a8.1 8.1 0 0 0 8.09 8.1h32.46v-.03l.57.03a8.7 8.7 0 0 0 1.63-17.23A8.1 8.1 0 0 0 32.5 7.67a12.15 12.15 0 0 0-22.15 9.28h-.37a8.1 8.1 0 0 0-8.1 8.1"/></symbol><symbol id="c" viewBox="0 0 359 231"><path fill="none" stroke="#e2e8f0" stroke-linecap="round" stroke-linejoin="round" stroke-width="3.75" d="M73.88 55.88a14 14 0 0 0 0-28l-.63.02A20.98 20.98 0 0 0 35 11.85a14 14 0 0 0-21.15 12.03 14 14 0 0 0 .2 2.24 15 15 0 0 0 2.8 29.76"/></symbol><symbol id="f" viewBox="0 0 447.7 371.5"><g clip-path="url(#a)"><use width="214.3" height="140.1" href="#b" transform="translate(48.88 41.25)"><animateTransform additive="sum" attributeName="transform" dur="6s" repeatCount="indefinite" type="translate" values="-2.25 0; 2.25 0; -2.25 0"/></use></g><use width="359" height="231" href="#c" transform="translate(0 35.12)"><animateTransform additive="sum" attributeName="transform" dur="6s" repeatCount="indefinite" type="translate" values="-4.5 0; 4.5 0; -4.5 0"/></use></symbol><symbol id="g" viewBox="0 0 512 371.5"><g clip-path="url(#d)"><use width="193" height="193" href="#e" transform="translate(14.38 27.62)"/></g><use width="447.7" height="371.5" href="#f" transform="translate(16.09)"/></symbol><symbol id="h" viewBox="0 0 128 56"><path fill="#0a5ad4" d="M2 14a2 2 0 0 1-2-2V2a2 2 0 0 1 4 0v10a2 2 0 0 1-2 2" opacity="0"><animateTransform additive="sum" attributeName="transform" begin="0s; x1.end+.33s" dur=".67s" type="translate" values="0 -15; 0 15"/><animate attributeName="opacity" begin="0s; y1.end+.33s" dur=".67s" keyTimes="0; .25; 1" values="0; 1; 0"/></path><path fill="#0a5ad4" d="M16 14a2 2 0 0 1-2-2V2a2 2 0 0 1 4 0v10a2 2 0 0 1-2 2" opacity="0"><animateTransform additive="sum" attributeName="transform" begin=".33s; x2.end+.33s" dur=".67s" type="translate" values="0 -15; 0 15"/><animate attributeName="opacity" begin=".33s; y2.end+.33s" dur=".67s" keyTimes="0; .25; 1" values="0; 1; 0"/></path><path fill="#0a5ad4" d="M30 14a2 2 0 0 1-2-2V2a2 2 0 0 1 4 0v10a2 2 0 0 1-2 2" opacity="0"><animateTransform additive="sum" attributeName="transform" begin="-.33s; x3.end+.33s" dur=".67s" type="translate" values="0 -15; 0 15"/><animate attributeName="opacity" begin="-.33s; y3.end+.33s" dur=".67s" keyTimes="0; .25; 1" values="0; 1; 0"/></path></symbol><clipPath id="a"><path fill="none" d="M87.88 77a14 14 0 0 0-14-14l-.63.02A20.93 20.93 0 0 0 52.88 37V0h59.04v77z"><animateTransform additive="sum" attributeName="transform" dur="6s" repeatCount="indefinite" type="translate" values="-4.5 0; 4.5 0; -4.5 0"/></path></clipPath><clipPath id="d"><path fill="none" d="M69 37a20.95 20.95 0 0 0-17.85 10A14 14 0 0 0 30 59a14 14 0 0 0 .2 2.25A15 15 0 0 0 18 76H0V0h69z"><animateTransform additive="sum" attributeName="transform" dur="6s" repeatCount="indefinite" type="translate" values="-4.5 0; 4.5 0; -4.5 0"/></path></clipPath></defs><use width="512" height="371.5" href="#g"/><use width="128" height="56" href="#h" transform="translate(47 86.5)"/></svg>