<svg xmlns="http://www.w3.org/2000/svg" width="128" height="128" class="uil-comment" preserveAspectRatio="xMidYMid" viewBox="0 0 128 128"><g fill="none" fill-rule="evenodd"><path fill="#ff6b00" d="M99.84 24.23H28.16c-8.45 0-15.36 6.92-15.36 15.36v39.42c0 8.45 6.91 15.36 15.36 15.36h47.62c.25 2.31 1.28 4.87 2.81 7.17 2.82 4.35 7.17 7.68 11.52 7.68h1.54c-1.03-1.54-2.05-5.63-2.05-11.78v-1.79h10.24c8.45 0 15.36-6.91 15.36-15.36V39.59c0-8.44-6.91-15.36-15.36-15.36"/><circle cx="38.4" cy="60.16" r="6.4" fill="#fff"><animate attributeName="opacity" begin="0s" calcMode="linear" dur="1" keyTimes="0;0.2;1" repeatCount="indefinite" values="0;1;1"/></circle><circle cx="64" cy="60.16" r="6.4" fill="#fff"><animate attributeName="opacity" begin="0.1s" calcMode="linear" dur="1" keyTimes="0;0.2;1" repeatCount="indefinite" values="0;1;1"/></circle><circle cx="89.6" cy="60.16" r="6.4" fill="#fff"><animate attributeName="opacity" begin="0.2s" calcMode="linear" dur="1" keyTimes="0;0.2;1" repeatCount="indefinite" values="0;1;1"/></circle></g></svg>