<svg xmlns="http://www.w3.org/2000/svg" width="128" height="128" viewBox="0 0 128 128"><g fill="currentColor" fill-opacity="0"><path d="m81.17 32.16 13.5-10.35-17.02-.48-5.65-16-5.65 16-17.02.48 13.5 10.35-4.86 16.32L72 38.83l14.03 9.65z"><animate id="a" fill="freeze" attributeName="fill-opacity" begin="0.7s;a.begin+6s" dur="0.4s" values="0;1"/><animate fill="freeze" attributeName="fill-opacity" begin="a.begin+2.2s" dur="0.4s" values="1;0"/></path><path d="m72.59 28 8.74-6.67-10.98-.26-3.68-10.4-3.68 10.4-10.99.26L60.75 28 57.6 38.56l9.07-6.24 9.06 6.24z"><animate fill="freeze" attributeName="fill-opacity" begin="a.begin+3s" dur="0.4s" values="0;1"/><animate fill="freeze" attributeName="fill-opacity" begin="a.begin+5.2s" dur="0.4s" values="1;0"/></path><path d="m104.59 65.33 8.74-6.66-10.98-.27L98.67 48l-3.68 10.4-10.99.27 8.75 6.66-3.15 10.56 9.07-6.24 9.06 6.24z"><animate fill="freeze" attributeName="fill-opacity" begin="a.begin+0.4s" dur="0.4s" values="0;1"/><animate fill="freeze" attributeName="fill-opacity" begin="a.begin+2.8s" dur="0.4s" values="1;0"/></path><path d="m111.08 51.9 10.01-7.68-12.62-.35L104.28 32l-4.19 11.87-12.62.35 10 7.68-3.6 12.1 10.41-7.16 10.4 7.16z"><animate fill="freeze" attributeName="fill-opacity" begin="a.begin+3.4s" dur="0.4s" values="0;1"/><animate fill="freeze" attributeName="fill-opacity" begin="a.begin+5.6s" dur="0.4s" values="1;0"/></path></g><path fill="currentColor" fill-opacity="0" stroke="currentColor" stroke-dasharray="298.67" stroke-dashoffset="298.67" stroke-linecap="round" stroke-linejoin="round" stroke-width="10.67" d="M37.33 32c0 32.43 26.24 58.67 58.67 58.67 2.83 0 5.6-.22 8.32-.59C95.73 103.25 80.91 112 64 112c-26.51 0-48-21.49-48-48 0-16.91 8.75-31.73 21.92-40.32-.37 2.72-.59 5.49-.59 8.32"><animate fill="freeze" attributeName="fill-opacity" begin="1.5s" dur="0.15s" values="0;0.3"/><animate fill="freeze" attributeName="stroke-dashoffset" dur="0.6s" values="298.67;0"/></path></svg>