<svg xmlns="http://www.w3.org/2000/svg" width="128" height="128" viewBox="0 0 128 128"><defs><symbol id="c" viewBox="0 0 193 193"><circle cx="24.12" cy="24.12" r="10" fill="none" stroke="#fbbf24" stroke-miterlimit="10" stroke-width="2.25"/><path fill="none" stroke="#fbbf24" stroke-linecap="round" stroke-miterlimit="10" stroke-width="2.25" d="M24.12 7.47V1.12m0 46v-6.35M35.9 12.35l4.5-4.5M7.85 40.4l4.5-4.5m0-23.55-4.5-4.5M40.4 40.4l-4.5-4.5M1.12 24.12h6.35m39.65 0h-6.35"><animateTransform additive="sum" attributeName="transform" dur="6s" repeatCount="indefinite" type="rotate" values="0 24.12 24.12;45 24.12 24.12"/></path></symbol><symbol id="d" viewBox="0 0 72 168"><circle cx="9" cy="33" r="9" fill="#ef4444"/><path fill="none" stroke="#ef4444" stroke-linecap="round" stroke-miterlimit="10" stroke-width="6" d="M9 3v30"><animateTransform attributeName="transform" calcMode="spline" dur="1s" keySplines=".42, 0, .58, 1; .42, 0, .58, 1" repeatCount="indefinite" type="translate" values="0 0; 0 4.5; 0 0"/></path></symbol><symbol id="e" viewBox="0 0 118 278"><path fill="none" stroke="#cbd5e1" stroke-linecap="round" stroke-linejoin="round" stroke-width="1.5" d="M28.75 54.55c0 7.85-6.25 14.2-14 14.2s-14-6.35-14-14.2a14.25 14.25 0 0 1 6-11.65V8.88a8 8 0 1 1 16 0v34a14.25 14.25 0 0 1 6 11.67m-13-33.8h7m-7-8h7m-7 16h7"/></symbol><symbol id="g" viewBox="0 0 118 278"><use width="72" height="168" href="#d" transform="translate(5.75 21.75)"/><use width="118" height="278" href="#e"/></symbol><clipPath id="b"><path fill="none" d="M64 98c7.75 0 14-6.35 14-14.2a14.25 14.25 0 0 0-6-11.65V38.12A8.05 8.05 0 0 0 64 30V19.93h41.8V98zm1-48h7m-7-8h7m-7 16h7"/></clipPath></defs><g clip-path="url(#b)"><use width="193" height="193" href="#c" transform="translate(54.38 27.38)"/></g><use width="118" height="278" href="#g" transform="translate(49.25 29.25)"/></svg>